<?xml version="1.0" encoding="UTF-8"?> <svg xmlns="http://www.w3.org/2000/svg" viewBox="0 0 539.96 99.24"><title>Asset 10</title><g id="f9eee5a5-08f3-400e-97ee-4b7d4e10c605" data-name="Layer 2"><g id="fee9a81d-44bf-4b56-aac2-16aa4a84cbf9" data-name="Layer 11"><path id="b9a65693-742e-47f8-a518-3416557059b8" data-name="D" d="M38.43,1.39C26.57.36,14.65,1.25,2.76,1,.61.92,0,1.47,0,3.67c.1,15.32.05,30.64.05,46,0,15.5,0,31,0,46.5,0,2,.49,2.52,2.47,2.46,4.89-.15,9.79,0,14.69-.06,8.73-.15,17.47.43,26.18-.9C66.33,94.15,83.08,76,84,53.27,85.24,24.13,67.6,3.92,38.43,1.39ZM60,65.78c-5.46,10.1-14.5,14.36-25.57,15-4,.22-8-.06-12,.08-1.73.06-2-.59-2-2.1.06-9.74,0-19.48,0-29.22,0-9.57,0-19.13,0-28.7,0-1.68.4-2.21,2.14-2.16,6.53.18,13.12-.42,19.55,1.23a28,28,0,0,1,21.38,25.4C64.08,52.4,63.48,59.37,60,65.78Z" style="fill:#1f2559"></path></g><g id="bc05ce43-4043-4c30-ba88-bbf6c3df93e6" data-name="Layer 10"><path id="f97bb1d3-c6a1-4936-96af-f09d521b20a4" data-name="E" d="M116.79,25.35c-14.14,3.3-23.29,12.17-26.8,26-3.64,14.37-.89,27.67,10.28,38.09,10.42,9.72,23.13,11.51,36.67,8.31,8.14-1.93,14.69-6.26,19.05-13.59,1-1.78,1.12-2.74-1.05-3.64-3.94-1.64-7.8-3.48-11.59-5.44-1.51-.78-2.17-.67-3.28.74-4.61,5.88-11,7-17.91,5.71-6.77-1.29-10.8-5.52-12.58-12.11-.51-1.87,0-2.13,1.75-2.12,7.69.08,15.39,0,23.08,0s15.22-.07,22.82,0c2,0,2.68-.5,3-2.51A35.31,35.31,0,0,0,116.79,25.35ZM137,53.07c-4.1-.21-8.21,0-12.32,0H111.29c-.88,0-1.7.22-1.35-1.34a15,15,0,0,1,14.24-11.4c7.21-.27,13,3.63,14.85,10C139.61,52.21,139.54,53.21,137,53.07Z" style="fill:#1f2559"></path></g><g id="adfb3daa-15c5-4936-805b-aa9ed8864bbb" data-name="Layer 9"><path id="fbce5f5f-b0a8-4c16-80c6-726b14f98cad" data-name="O" d="M298.78,44.15C291.39,30.3,279,24.44,263.48,24.52A37.24,37.24,0,0,0,227,68.86c3.58,18.1,18.73,30.3,38.07,30.31a25.54,25.54,0,0,0,5.29-.39C298.66,94.89,310.46,66.07,298.78,44.15ZM264.4,81.4c-8.7-.09-15.63-6.17-17.15-15a24.36,24.36,0,0,1,.43-10.84c2.53-9,9.59-13.94,19-13.25,8,.58,14.6,7.17,15.7,15.72.17,1.29.22,2.6.26,3.16C282.61,73.61,275.21,81.51,264.4,81.4Z" style="fill:#f3263e"></path></g><g id="ba2063bc-2609-4fe4-8ef7-b89fcae4f2de" data-name="Layer 8"><path id="ba3ce7f2-65af-4e31-8dbd-5d0a6f894d86" data-name="N" d="M412.7,33.82c8-9,19-11.68,30.48-7.67,10,3.5,16.45,12.37,16.65,23.91.26,15.23.09,30.47.14,45.71,0,1.26-.21,1.88-1.7,1.86-5.42-.08-10.85-.11-16.27,0-1.92,0-1.82-1-1.82-2.3q0-19.2,0-38.39c0-3.93-.64-7.64-3.42-10.66a13.52,13.52,0,0,0-14.72-3.15,12.22,12.22,0,0,0-7.93,11.8q-.08,20,0,40c0,2.12-.47,2.83-2.7,2.76-5.07-.17-10.15-.13-15.22,0-1.66,0-2-.49-2-2.06q.07-33.82,0-67.65c0-1.5.43-1.89,1.9-1.87,4.9.09,9.8.08,14.69,0,1.43,0,2.05.3,1.93,1.84C412.6,29.72,412.7,31.55,412.7,33.82Z" style="fill:#1f2559"></path></g><g id="fb563f82-68ee-4cd1-81d1-0c49f477b4fd" data-name="Layer 7"><path id="a399d8d6-d4fc-4ad2-a24e-740855b3dce3" data-name="S" d="M193,24.48c10.67.22,20.12,3.23,27.06,11.89,4.92,6.13,4.83,6.45-2.22,9.72-2.45,1.14-4.91,2.25-7.33,3.46-1,.49-1.39.3-2-.65a17.53,17.53,0,0,0-19.76-8.15c-3,.76-4.91,2.62-5,5-.1,2.86,1.68,4.51,4.12,5.43,5.39,2,11.07,3.1,16.6,4.69A37.66,37.66,0,0,1,214.31,60a19.77,19.77,0,0,1,.95,33.35c-6.72,4.74-14.41,6.13-22.42,5.75-10.63-.51-20-3.89-26.87-12.53-1.74-2.21-4-4.74-3.76-7.26.24-2.7,4.17-2.51,6.24-4a1.63,1.63,0,0,1,.23-.11c2.3-1.07,4.58-3,6.88-3,2.56,0,2.87,3.54,4.53,5.28,5.3,5.53,11.6,7.51,19,5.95,3.3-.69,5.4-2.89,5.58-5.45s-1.29-4.81-4.64-5.9c-5-1.62-10.06-2.86-15.12-4.2a43.69,43.69,0,0,1-7.9-2.74c-7.82-3.76-12.57-9.72-12.47-18.6s4.75-15.22,12.83-19A34.89,34.89,0,0,1,193,24.48Z" style="fill:#f3263e"></path></g><g id="aac7ec97-6137-4f08-a56a-5b77f8064031" data-name="Layer 6"><path id="f4b58f16-9260-44ce-8637-d96ad7500376" data-name="T" d="M476.14,59.78c0-4.79-.12-9.58.06-14.36.07-2.08-.64-2.5-2.51-2.39-2.62.15-5.25,0-7.87.06-1.38,0-2.07-.24-2-1.84.09-4.52.08-9,0-13.58,0-1.3.51-1.53,1.66-1.65,7.81-.81,10.66-4,10.7-11.91,0-2.53.12-5.06,0-7.58-.1-1.68.51-2,2.07-2,5.25.09,10.5.12,15.74,0,1.84,0,2.15.64,2.12,2.25-.08,5.66.08,11.33-.08,17-.06,2.06.62,2.43,2.49,2.37,4.11-.14,8.22,0,12.33-.08,1.53,0,1.91.48,1.88,1.92-.09,4.36-.1,8.71,0,13.06,0,1.63-.49,2.1-2.09,2.06-3.93-.1-7.88.09-11.81-.08-2.09-.09-2.85.36-2.81,2.65.15,8.79.05,17.59.07,26.38,0,6.43,3.42,10,9.87,10.45a28.44,28.44,0,0,0,5-.1c1.45-.16,1.81.33,1.79,1.69-.07,4,0,8,0,12,0,.79.1,1.62-1,1.74-10.1,1-20,1.18-28.15-6.33-5.17-4.79-7-11.08-7.26-17.89C476,69,476.14,64.4,476.14,59.78Z" style="fill:#1f2559"></path></g><g id="a2d20ba8-f830-405f-a4d1-1071b72a4430" data-name="Layer 5"><path id="abb1a67d-aa51-48c8-9d2b-863e459dacf2" data-name="I" d="M382.6,49c0,15.33,0,30.65.06,46,0,2.2-.63,2.76-2.77,2.7-5.25-.16-10.5-.12-15.75,0-1.64,0-2.05-.47-2-2.06q.06-46.75,0-93.52c0-1.62.48-2.06,2.08-2,5.33.1,10.67.13,16,0,2,0,2.48.5,2.47,2.46C382.57,18,382.6,33.47,382.6,49Z" style="fill:#1f2559"></path></g><g id="a9bb6fca-b692-4cd8-9877-aaa9de51a9de" data-name="Layer 4"><path id="aadca475-8864-4274-b41b-86400f024efb" data-name="L" d="M309.63,48.81c0-15.41,0-30.81-.05-46.21,0-2.06.54-2.66,2.61-2.6,5,.16,10,.1,14.95,0,1.59,0,2.33.26,2.33,2.1q-.08,46.73,0,93.46c0,1.6-.5,2.08-2.1,2-5.16-.09-10.32-.12-15.47,0-1.9,0-2.3-.6-2.29-2.37C309.66,79.78,309.63,64.29,309.63,48.81Z" style="fill:#f3263e"></path></g><g id="aa3b255c-0b97-4e95-8241-dc1aee8c2b6c" data-name="Layer 3"><circle id="ae5215cd-9c17-434b-a9d3-8ef86c7c7aad" data-name="full stop" cx="530.79" cy="89.18" r="9.17" style="fill:#f3263e"></circle></g></g></svg> 